<?xml version="1.0" encoding="UTF-8" standalone="no"?>
<!-- Created with Inkscape (http://www.inkscape.org/) -->

<svg
   width="1080px"
   height="1080px"
   viewBox="0 0 1080 1080"
   version="1.1"
   id="SVGRoot"
   sodipodi:docname="fluer1.svg"
   inkscape:version="1.2.1 (1:1.2.1+202210291243+9c6d41e410)"
   xmlns:inkscape="http://www.inkscape.org/namespaces/inkscape"
   xmlns:sodipodi="http://sodipodi.sourceforge.net/DTD/sodipodi-0.dtd"
   xmlns="http://www.w3.org/2000/svg"
   xmlns:svg="http://www.w3.org/2000/svg">
  <sodipodi:namedview
     id="namedview1262"
     pagecolor="#505050"
     bordercolor="#eeeeee"
     borderopacity="1"
     inkscape:showpageshadow="0"
     inkscape:pageopacity="0"
     inkscape:pagecheckerboard="0"
     inkscape:deskcolor="#505050"
     inkscape:document-units="px"
     showgrid="false"
     inkscape:zoom="0.52599005"
     inkscape:cx="396.39533"
     inkscape:cy="620.73418"
     inkscape:window-width="1920"
     inkscape:window-height="1009"
     inkscape:window-x="0"
     inkscape:window-y="0"
     inkscape:window-maximized="1"
     inkscape:current-layer="layer1">
    <sodipodi:guide
       position="528.1881,812.5932"
       orientation="1080,0"
       id="guide3622"
       inkscape:locked="false" />
    <sodipodi:guide
       position="0,540"
       orientation="0,1080"
       id="guide3624"
       inkscape:locked="false" />
  </sodipodi:namedview>
  <defs
     id="defs1257">
    <inkscape:path-effect
       effect="copy_rotate"
       starting_point="0,0"
       origin="26.602067,628.87425"
       id="path-effect1907"
       is_visible="false"
       lpeversion="1.2"
       lpesatellites=""
       method="normal"
       num_copies="6"
       starting_angle="0"
       rotation_angle="60"
       gap="-0.01"
       copies_to_360="true"
       mirror_copies="false"
       split_items="false"
       link_styles="false" />
    <inkscape:path-effect
       effect="vonkoch"
       id="path-effect1905"
       is_visible="false"
       lpeversion="1"
       ref_path="M 716.81365,1379.7106 528.18813,539.99999"
       generator="M 26.602067,1044.4473 H 360.99274 m 334.39068,0 h 334.39068"
       similar_only="false"
       nbgenerations="3"
       drawall="true"
       maxComplexity="2000"
       ref_path-nodetypes="cc" />
    <inkscape:path-effect
       effect="copy_rotate"
       starting_point="1557.6997,574.94903"
       origin="1056.1137,574.94903"
       id="path-effect1903"
       is_visible="false"
       lpeversion="1.2"
       lpesatellites=""
       method="normal"
       num_copies="6"
       starting_angle="0"
       rotation_angle="60"
       gap="-0.01"
       copies_to_360="true"
       mirror_copies="false"
       split_items="false"
       link_styles="false" />
    <inkscape:path-effect
       effect="tiling"
       id="path-effect1899"
       is_visible="false"
       lpeversion="1"
       unit="px"
       seed="1;1"
       lpesatellites=""
       num_rows="3"
       num_cols="3"
       gapx="0"
       gapy="0"
       offset="0"
       offset_type="false"
       scale="0"
       rotate="0"
       mirrorrowsx="false"
       mirrorrowsy="false"
       mirrorcolsx="false"
       mirrorcolsy="false"
       mirrortrans="false"
       shrink_interp="false"
       split_items="false"
       link_styles="false"
       interpolate_scalex="false"
       interpolate_scaley="true"
       interpolate_rotatex="false"
       interpolate_rotatey="true"
       random_scale="false"
       random_rotate="false"
       random_gap_y="false"
       random_gap_x="false"
       transformorigin="matrix(0.28753382,0,0,0.28753382,376.31615,384.73174)" />
    <inkscape:path-effect
       effect="copy_rotate"
       starting_point="764.26074,561.3623"
       origin="528.1881,561.3623"
       id="path-effect1873"
       is_visible="true"
       lpeversion="1.2"
       lpesatellites=""
       method="kaleidoskope"
       num_copies="12"
       starting_angle="0"
       rotation_angle="30"
       gap="-0.02"
       copies_to_360="true"
       mirror_copies="false"
       split_items="false"
       link_styles="false" />
    <inkscape:path-effect
       effect="copy_rotate"
       starting_point="593.46362,540"
       origin="528.1881,540"
       id="path-effect1025"
       is_visible="true"
       lpeversion="1.2"
       lpesatellites=""
       method="normal"
       num_copies="6"
       starting_angle="0"
       rotation_angle="60"
       gap="-0.01"
       copies_to_360="true"
       mirror_copies="false"
       split_items="false"
       link_styles="false" />
    <inkscape:path-effect
       effect="mirror_symmetry"
       start_point="528.1881,267.4068"
       end_point="528.1881,485.44106"
       center_point="528.1881,376.42393"
       id="path-effect1023"
       is_visible="true"
       lpeversion="1.2"
       lpesatellites=""
       mode="free"
       discard_orig_path="false"
       fuse_paths="false"
       oposite_fuse="false"
       split_items="false"
       split_open="false"
       link_styles="false" />
    <inkscape:path-effect
       effect="knot"
       id="path-effect858"
       is_visible="true"
       lpeversion="1"
       switcher_size="15.5"
       interruption_width="3"
       prop_to_stroke_width="true"
       add_stroke_width="inkscape_1.0_and_up"
       both="false"
       inverse_width="false"
       add_other_stroke_width="inkscape_1.0_and_up"
       crossing_points_vector="" />
    <inkscape:path-effect
       effect="copy_rotate"
       starting_point="578.51008,540"
       origin="528.1881,540"
       id="path-effect6848"
       is_visible="true"
       lpeversion="1.2"
       lpesatellites=""
       method="normal"
       num_copies="6"
       starting_angle="0"
       rotation_angle="60"
       gap="-0.01"
       copies_to_360="true"
       mirror_copies="false"
       split_items="false"
       link_styles="false" />
    <inkscape:path-effect
       effect="curvestitching"
       id="path-effect6846"
       is_visible="false"
       lpeversion="1"
       count="500"
       startpoint_edge_variation="1;1"
       startpoint_spacing_variation="0;2826845118"
       endpoint_edge_variation="1;1"
       endpoint_spacing_variation="0;1"
       strokepath="M 0,0 H 1"
       prop_scale="1"
       scale_y_rel="false" />
    <inkscape:path-effect
       effect="mirror_symmetry"
       start_point="529.1881,242.36146"
       end_point="529.1881,486.07907"
       center_point="529.1881,364.22026"
       id="path-effect6842"
       is_visible="true"
       lpeversion="1.2"
       lpesatellites=""
       mode="free"
       discard_orig_path="false"
       fuse_paths="false"
       oposite_fuse="false"
       split_items="false"
       split_open="false"
       link_styles="false" />
    <inkscape:path-effect
       effect="copy_rotate"
       starting_point="1328.7573,353.98183"
       origin="798.51516,357.07132"
       id="path-effect6721"
       is_visible="true"
       lpeversion="1.2"
       lpesatellites=""
       method="normal"
       num_copies="12"
       starting_angle="0.33383377"
       rotation_angle="30"
       gap="-0.01"
       copies_to_360="true"
       mirror_copies="false"
       split_items="false"
       link_styles="false" />
    <inkscape:path-effect
       effect="roughen"
       id="path-effect6700"
       is_visible="true"
       lpeversion="1.2"
       method="size"
       max_segment_size="4.34349"
       segments="2"
       displace_x="10;1"
       displace_y="10;1"
       global_randomize="1;1"
       handles="along"
       shift_nodes="true"
       fixed_displacement="false"
       spray_tool_friendly="false" />
    <inkscape:path-effect
       effect="copy_rotate"
       starting_point="1935.2766,-365.30041"
       origin="856.27509,-299.97286"
       id="path-effect6698"
       is_visible="true"
       lpeversion="1.2"
       lpesatellites=""
       method="normal"
       num_copies="6"
       starting_angle="3.464712"
       rotation_angle="60"
       gap="-0.01"
       copies_to_360="true"
       mirror_copies="false"
       split_items="false"
       link_styles="false" />
    <inkscape:path-effect
       effect="mirror_symmetry"
       start_point="1132.9567,-189.20993"
       end_point="1132.9567,-170.50152"
       center_point="1132.9567,-179.85573"
       id="path-effect6664"
       is_visible="true"
       lpeversion="1.2"
       lpesatellites=""
       mode="free"
       discard_orig_path="false"
       fuse_paths="false"
       oposite_fuse="false"
       split_items="true"
       split_open="false"
       link_styles="false" />
    <inkscape:path-effect
       effect="mirror_symmetry"
       start_point="1066.67,-170.6"
       end_point="1072.37,-189.51"
       center_point="1072.87,-179.85573"
       id="path-effect6662"
       is_visible="true"
       lpeversion="1.2"
       lpesatellites=""
       mode="free"
       discard_orig_path="false"
       fuse_paths="false"
       oposite_fuse="false"
       split_items="false"
       split_open="false"
       link_styles="false" />
    <inkscape:path-effect
       effect="copy_rotate"
       starting_point="626.89658,540"
       origin="540,540"
       id="path-effect5727"
       is_visible="true"
       lpeversion="1.2"
       lpesatellites=""
       method="normal"
       num_copies="6"
       starting_angle="0"
       rotation_angle="60"
       gap="-0.01"
       copies_to_360="true"
       mirror_copies="false"
       split_items="false"
       link_styles="false" />
    <inkscape:path-effect
       effect="mirror_symmetry"
       start_point="540,189.02172"
       end_point="540,438.64652"
       center_point="540,313.83412"
       id="path-effect5725"
       is_visible="true"
       lpeversion="1.2"
       lpesatellites=""
       mode="free"
       discard_orig_path="false"
       fuse_paths="false"
       oposite_fuse="false"
       split_items="false"
       split_open="false"
       link_styles="false" />
  </defs>
  <g
     inkscape:label="Layer 1"
     inkscape:groupmode="layer"
     id="layer1">
    <g
       id="g1021"
       inkscape:path-effect="#path-effect1023;#path-effect1025;#path-effect1899;#path-effect1903;#path-effect1905;#path-effect1907"
       class="UnoptimicedTransforms"
       transform="matrix(0.97656767,0,0,0.97656767,12.376686,12.653462)">
      <path
         style="fill:#000000;fill-opacity:1;stroke:#ffffff;stroke-width:2;stroke-linecap:round;stroke-linejoin:round;stroke-dasharray:none;stroke-opacity:0"
         d="m 528.1881,408.23309 c 45.9663,71.93981 30.63864,114.5479 -15.04323,67.67557 m 15.04323,-67.67557 c -45.9663,71.93981 -30.63864,114.5479 15.04323,67.67557 m -129.15672,-1.79212 c 85.28485,-3.83807 114.52071,30.74011 51.08715,46.86561 m -51.08715,-46.86561 c 39.31855,75.77789 83.88207,83.8078 66.13038,20.80997 m -66.13038,110.95695 c 39.31855,-75.77789 83.88207,-83.8078 66.13038,-20.80997 m -66.13038,20.80997 c 85.28485,3.83807 114.52071,-30.74011 51.08715,-46.86561 m 63.02634,112.74906 c -45.9663,-71.93981 -30.63864,-114.5479 15.04323,-67.67557 m -15.04323,67.67557 c 45.9663,-71.93981 30.63864,-114.5479 -15.04323,-67.67557 m 129.15672,1.79212 c -85.28485,3.83807 -114.52071,-30.74011 -51.08715,-46.86561 m 51.08715,46.86561 c -39.31855,-75.77789 -83.88207,-83.8078 -66.13038,-20.80997 m 66.13038,-110.95695 c -39.31855,75.77789 -83.88207,83.8078 -66.13038,20.80997 m 66.13038,-20.80997 c -85.28485,-3.83807 -114.52071,30.74011 -51.08715,46.86561"
         id="path1012"
         inkscape:original-d="m 528.1881,408.23309 c 45.9663,71.93981 30.63864,114.5479 -15.04323,67.67557"
         sodipodi:nodetypes="cc" />
      <path
         style="fill:#000000;stroke:#ffffff;stroke-width:2;stroke-linecap:round;stroke-linejoin:round;stroke-dasharray:none;stroke-opacity:0"
         d="m 528.1881,316.06693 c -55.25899,87.1887 -53.97095,105.95231 -19.35403,128.55546 M 528.1881,316.06693 c 55.25899,87.1887 53.97095,105.95231 19.35403,128.55546 M 334.25637,428.03346 c 47.87814,91.45004 64.77192,99.71637 101.65528,81.03882 M 334.25637,428.03346 c 103.13713,-4.26133 118.74287,6.23595 121.00931,47.51665 M 334.25637,651.96654 c 103.13713,4.26133 118.74287,-6.23595 121.00931,-47.51665 m -121.00931,47.51665 c 47.87814,-91.45004 64.77192,-99.71637 101.65528,-81.03882 m 92.27645,193.00535 c 55.25899,-87.1887 53.97095,-105.95231 19.35403,-128.55546 M 528.1881,763.93307 C 472.92911,676.74437 474.21715,657.98076 508.83407,635.37761 m 213.28576,16.58893 C 674.24169,560.5165 657.34791,552.25017 620.46455,570.92772 m 101.65528,81.03882 C 618.9827,656.22787 603.37696,645.73059 601.11052,604.44989 M 722.11983,428.03346 c -103.13713,-4.26133 -118.74287,6.23595 -121.00931,47.51665 m 121.00931,-47.51665 c -47.87814,91.45004 -64.77192,99.71637 -101.65528,81.03882"
         id="path1014"
         inkscape:original-d="m 528.1881,316.06693 c -55.25899,87.1887 -53.97095,105.95231 -19.35403,128.55546"
         sodipodi:nodetypes="cc" />
      <path
         style="fill:#000000;stroke:#ffffff;stroke-width:2;stroke-linecap:round;stroke-linejoin:round;stroke-dasharray:none;stroke-opacity:0"
         d="M 438.36133,78.277344 380.66211,305.84961 397.61719,335.2207 C 410.6206,266.01987 424.2948,181.52022 438.36133,78.277344 Z M 691.93945,98.085938 528.18164,266.31836 v 33.91406 c 45.8617,-53.42797 99.95441,-119.76879 163.75781,-202.146482 z m -483.08593,89.824222 63.8164,225.93554 29.36914,16.95703 C 278.69993,364.37135 248.29298,284.35437 208.85352,187.91016 Z m 692.78515,54.11718 -225.93359,63.81641 -16.95703,29.37109 c 66.43138,-23.33913 146.44641,-53.74803 242.89062,-93.1875 z M 64.910156,397.61133 233.14453,561.36914 h 33.91406 C 213.63062,515.50744 147.28785,461.41474 64.910156,397.61133 Z m 718.789064,16.22461 -29.36914,16.95703 c 69.20083,13.00341 153.70088,26.67761 256.94332,40.74414 z M 45.101562,651.1875 272.67578,708.88867 302.04688,691.93164 C 232.84604,678.92823 148.34444,665.25403 45.101562,651.1875 Z m 709.234378,40.73438 c 23.33913,66.43137 53.74608,146.44836 93.18554,242.89257 l -63.8164,-225.93554 z m -95.57813,95.58203 C 645.7544,856.70474 632.0802,941.20433 618.01367,1044.4473 L 675.71484,816.875 Z m -261.1289,0.006 c -66.43139,23.33913 -146.44837,53.74803 -242.89258,93.1875 L 380.67188,816.881 Z m 130.56445,34.98242 C 482.33166,875.9203 428.24091,942.26103 364.4375,1024.6388 L 528.19336,856.40625 Z m 261.125,-261.13672 c 53.42797,45.8617 119.76879,99.9544 202.14648,163.75781 L 823.23047,561.35547 Z M 618.01487,78.277344 675.71409,305.84961 658.75901,335.2207 C 645.7556,266.01987 632.0814,181.52022 618.01487,78.277344 Z M 364.43675,98.085938 528.19456,266.31836 v 33.91406 C 482.33286,246.80445 428.24015,180.46363 364.43675,98.085938 Z m 483.08593,89.824222 -63.8164,225.93554 -29.36914,16.95703 c 23.33913,-66.43138 53.74608,-146.44836 93.18554,-242.89257 z m -692.78515,54.11718 225.93359,63.81641 16.95703,29.37109 C 331.19677,311.87571 251.18174,281.46681 154.73753,242.02734 Z M 991.46604,397.61133 823.23167,561.36914 h -33.91406 c 53.42797,-45.8617 119.77074,-99.9544 202.14843,-163.75781 z m -718.78906,16.22461 29.36914,16.95703 C 232.84529,443.79638 148.34524,457.47058 45.1028,471.53711 Z m 738.59762,237.35156 -227.57418,57.70117 -29.3711,-16.95703 c 69.20084,-13.00341 153.70244,-26.67761 256.94528,-40.74414 z m -709.23434,40.73438 c -23.33913,66.43137 -53.74608,146.44836 -93.18554,242.89257 l 63.8164,-225.93554 z m 95.57813,95.58203 c 13.00341,69.20083 26.67761,153.70042 40.74414,256.94339 L 380.66136,816.875 Z m 261.1289,0.006 c 66.43139,23.33913 146.44837,53.74803 242.89258,93.1875 L 675.70432,816.881 Z m -130.56445,34.98242 c 45.8617,53.42797 99.95245,119.7687 163.75586,202.14647 L 528.18284,856.40625 Z m -261.125,-261.13672 c -53.42797,45.8617 -119.76879,99.9544 -202.14648,163.75781 L 233.14573,561.35547 Z M 83.411165,386.93094 251.64492,550.68606 l 33.91365,0.002 C 232.1306,504.82638 165.78885,450.73435 83.411165,386.93094 Z m 143.943805,-209.7008 63.81465,225.93463 29.37043,16.95703 C 297.20093,353.69042 266.79444,273.67435 227.35497,177.23014 Z M 63.602064,640.50694 291.17618,698.20809 320.54597,681.25218 C 251.34514,668.24877 166.84493,654.57347 63.602064,640.50694 Z M 456.86149,67.595989 399.16133,295.16842 416.11892,324.53919 C 429.12233,255.33836 442.79497,170.83886 456.86149,67.595989 Z M 173.23692,870.01613 399.17253,806.1998 416.12956,776.82936 c -66.43138,23.33913 -146.44842,53.7473 -242.89264,93.18677 z m 373.44546,-614.37728 6.5e-4,33.91294 C 592.54473,236.12381 646.63696,169.78172 710.44015,87.404413 Z M 382.93603,1013.959 546.69382,845.7245 l 3.3e-4,-33.91464 c -45.8617,53.42798 -99.95471,119.77141 -163.75812,202.14914 z m 389.8942,-593.84783 c 69.20082,13.0034 153.70104,26.6787 256.94387,40.74524 L 802.20002,403.15526 Z m 34.9874,130.5641 c 53.42797,45.8617 119.76966,99.9537 202.14747,163.75715 L 841.73225,550.6756 Z M 677.25837,776.82253 c -13.00341,69.20084 -26.67702,153.70202 -40.74354,256.94487 l 57.70114,-227.57411 z m 95.57789,-95.58092 c 23.33913,66.43138 53.74652,146.44571 93.18605,242.88997 L 802.20658,698.19857 Z M 677.24773,324.53237 c 66.43138,-23.33913 146.44745,-53.74562 242.89166,-93.18509 l -225.93573,63.81627 z m -504.00979,-93.18596 225.93297,63.81714 16.95857,29.36907 C 349.6981,301.19349 269.68215,270.78587 173.23794,231.34641 Z M 63.603621,460.8558 291.17608,403.15359 320.54651,420.11062 C 251.34569,433.11403 166.84649,446.78928 63.603621,460.8558 Z M 382.93664,87.403221 546.69436,255.63761 l 6.5e-4,33.91294 C 500.83331,236.12258 446.74005,169.7809 382.93664,87.403221 Z M 83.410922,714.43135 251.64435,550.67533 l 33.91462,3.2e-4 C 232.131,596.53735 165.78861,650.62795 83.410922,714.43135 Z M 636.51486,67.5952 694.2161,295.16934 677.25907,324.53978 C 664.25566,255.33895 650.58139,170.83808 636.51486,67.5952 Z m -345.3436,630.60189 29.36979,-16.95591 c -23.33913,66.43139 -53.74695,146.44768 -93.1862,242.89152 z m 574.85129,-520.96852 -63.81641,225.9356 -29.37077,16.95761 C 796.17451,353.69039 826.5831,273.67276 866.02255,177.22857 Z M 546.68239,811.81071 c 45.86169,53.42797 99.95496,119.76966 163.75836,202.14729 L 546.68304,845.72365 Z m 130.56553,-34.98207 c 66.43138,23.33913 146.44727,53.74672 242.89157,93.18624 L 694.20551,806.1994 Z M 807.81756,550.68738 C 861.24554,504.82567 927.58891,450.73339 1009.9666,386.92999 L 841.73219,550.68771 Z M 772.831,681.25072 c 69.20083,-13.00341 153.69897,-26.67701 256.9419,-40.7435 l -227.57158,57.70046 z m -356.71353,95.57252 c 13.00341,69.20083 26.67866,153.70002 40.74518,256.94286 L 399.16129,806.19192 Z m -242.87953,71.83035 225.93297,-63.81714 16.95857,-29.36907 C 349.6981,778.80651 269.68215,809.21413 173.23794,848.65359 Z M 63.603621,619.1442 291.17608,676.84641 320.54651,659.88938 C 251.34569,646.88597 166.84649,633.21072 63.603621,619.1442 Z m 319.333019,373.45258 163.75772,-168.23439 6.5e-4,-33.91294 C 500.83331,843.87742 446.74005,910.2191 382.93664,992.59678 Z M 83.410922,365.56865 251.64435,529.32467 l 33.91462,-3.2e-4 C 232.131,483.46265 165.78861,429.37205 83.410922,365.56865 Z M 636.51487,1012.4048 694.2161,784.83066 677.25907,755.46022 c -13.00341,69.20083 -26.67768,153.7017 -40.7442,256.94458 z M 291.17126,381.80291 320.54105,398.75882 C 297.20192,332.32743 266.7941,252.31114 227.35485,155.8673 Z M 866.02257,902.77146 802.20614,676.83583 772.83537,659.87822 c 23.33914,66.43139 53.74773,146.44902 93.1872,242.89324 z M 546.68239,268.18929 C 592.54408,214.76132 646.63735,148.41963 710.44075,66.041956 L 546.68304,234.27635 Z m 130.56553,34.98207 C 743.6793,279.83223 823.69519,249.42464 920.13949,209.98512 L 694.20551,273.8006 Z m 130.56964,226.14126 c 53.42798,45.86171 119.77135,99.95399 202.14904,163.75739 L 841.73219,529.31229 Z M 772.831,398.74928 c 69.20083,13.00341 153.69897,26.67701 256.9419,40.7435 L 802.20132,381.79232 Z M 416.11747,303.17676 C 429.12088,233.97593 442.79613,149.47674 456.86265,46.233864 L 399.16129,273.80808 Z M 83.411165,693.06906 251.64492,529.31394 l 33.91365,-0.002 C 232.1306,575.17362 165.78885,629.26565 83.411165,693.06906 Z m 143.943805,209.7008 63.81465,-225.93463 29.37043,-16.95703 c -23.33912,66.43138 -53.74561,146.44745 -93.18508,242.89166 z M 63.602064,439.49306 291.17618,381.79191 320.54597,398.74782 C 251.34514,411.75123 166.84493,425.42653 63.602064,439.49306 Z M 456.86149,1012.404 399.16133,784.83158 416.11892,755.46081 c 13.00341,69.20083 26.67605,153.70033 40.74257,256.94319 z M 173.23692,209.98387 399.17253,273.8002 416.12956,303.17064 C 349.69818,279.83151 269.68114,249.42334 173.23692,209.98387 Z m 373.44546,614.37728 6.5e-4,-33.91294 c 45.8617,53.42798 99.95393,119.77007 163.75712,202.14738 z M 382.93605,66.041069 546.69382,234.2755 l 3.3e-4,33.91464 C 500.83245,214.76216 446.73944,148.41873 382.93605,66.041069 Z M 772.83023,659.88883 c 69.20082,-13.0034 153.70104,-26.6787 256.94387,-40.74524 l -227.57408,57.70115 z m 34.9874,-130.5641 c 53.42797,-45.8617 119.76966,-99.9537 202.14747,-163.75715 L 841.73225,529.3244 Z M 677.25837,303.17747 C 664.25496,233.97663 650.58135,149.47545 636.51483,46.232575 l 57.70114,227.574135 z m 95.57789,95.58092 c 23.33913,-66.43138 53.74652,-146.44571 93.18605,-242.88997 l -63.81573,225.93301 z m -95.58853,356.70924 c 66.43138,23.33913 146.44745,53.74562 242.89166,93.18509 L 694.20366,784.83645 Z M 618.01487,1001.7227 675.71409,774.15039 658.75901,744.7793 C 645.7556,813.98013 632.0814,898.47978 618.01487,1001.7227 Z M 364.43675,981.91406 528.19456,813.68164 v -33.91406 c -45.8617,53.42797 -99.95441,119.76879 -163.75781,202.14648 z M 847.52268,892.08984 783.70628,666.1543 754.33714,649.19727 c 23.33913,66.43138 53.74608,146.44836 93.18554,242.89257 z m -692.78515,-54.11718 225.93359,-63.81641 16.95703,-29.37109 c -66.43138,23.33913 -146.44641,53.74803 -242.89062,93.1875 z M 991.46604,682.38867 823.23167,518.63086 h -33.91406 c 53.42797,45.8617 119.77074,99.9544 202.14843,163.75781 z M 272.67698,666.16406 302.04612,649.20703 C 232.84529,636.20362 148.34524,622.52942 45.1028,608.46289 Z M 1011.2746,428.8125 783.70042,371.11133 l -29.3711,16.95703 c 69.20084,13.00341 153.70244,26.67761 256.94528,40.74414 z M 302.04026,388.07812 C 278.70113,321.64675 248.29418,241.62976 208.85472,145.18555 l 63.8164,225.93554 z m 95.57813,-95.58203 C 410.6218,223.29526 424.296,138.79567 438.36253,35.5527 L 380.66136,263.125 Z m 261.1289,-0.006 c 66.43139,-23.33913 146.44837,-53.74803 242.89258,-93.1875 L 675.70432,263.119 Z M 528.18284,257.50767 C 574.04454,204.0797 628.13529,137.73897 691.9387,55.3612 L 528.18284,223.59375 Z m -261.125,261.13672 C 213.62987,472.78269 147.28905,418.68999 64.91136,354.88658 L 233.14573,518.64453 Z M 438.36133,1001.7227 380.66211,774.15039 397.61719,744.7793 c 13.00341,69.20083 26.67761,153.70048 40.74414,256.9434 z M 691.93945,981.91406 528.18164,813.68164 v -33.91406 c 45.8617,53.42797 99.95441,119.76879 163.75781,202.14648 z m -483.08593,-89.82422 63.8164,-225.93554 29.36914,-16.95703 c -23.33913,66.43138 -53.74608,146.44836 -93.18554,242.89257 z M 901.63867,837.97266 675.70508,774.15625 658.74805,744.78516 c 66.43138,23.33913 146.44641,53.74803 242.89062,93.1875 z M 64.91016,682.38867 233.14453,518.63086 h 33.91406 c -53.42797,45.8617 -119.77074,99.9544 -202.14843,163.75781 z m 718.78906,-16.22461 -29.36914,-16.95703 c 69.20083,-13.00341 153.70088,-26.67761 256.94332,-40.74414 z M 45.1016,428.8125 l 227.57418,-57.70117 29.3711,16.95703 C 232.84604,401.07177 148.34444,414.74597 45.1016,428.8125 Z m 709.23434,-40.73438 c 23.33913,-66.43137 53.74608,-146.44836 93.18554,-242.89257 l -63.8164,225.93554 z M 658.75781,292.49609 C 645.7544,223.29526 632.0802,138.79567 618.01367,35.5527 l 57.70117,227.5723 z m -261.1289,-0.006 C 331.19752,269.15096 251.18054,238.74206 154.73633,199.30259 L 380.67188,263.119 Z M 528.19336,257.50767 C 482.33166,204.0797 428.24091,137.73897 364.4375,55.3612 l 163.75586,168.23255 z m 261.125,261.13672 c 53.42797,-45.8617 119.76879,-99.9544 202.14648,-163.75781 L 823.23047,518.64453 Z m 183.64667,174.42467 -168.23375,-163.75512 -33.91365,-0.002 c 53.42797,45.8617 119.76972,99.95373 202.1474,163.75714 z M 829.02123,902.76986 765.20658,676.83523 735.83615,659.8782 c 23.33912,66.43138 53.74561,146.44745 93.18508,242.89166 z m 163.75291,-463.2768 -227.57412,-57.70115 -29.36979,16.95591 c 69.20083,13.00341 153.70104,26.67871 256.94391,40.74524 z M 599.51471,1012.404 657.21487,784.83158 640.25728,755.46081 C 627.25387,824.66164 613.58123,909.16114 599.51471,1012.404 Z M 883.13928,209.98387 657.20367,273.8002 640.24664,303.17064 c 66.43138,-23.33913 146.44842,-53.7473 242.89264,-93.18677 z m -373.44546,614.37728 -6.5e-4,-33.91294 c -45.8617,53.42798 -99.95393,119.77007 -163.75712,202.14738 z M 673.44017,66.041036 509.68238,234.2755 l -3.3e-4,33.91464 C 555.54375,214.76216 609.63676,148.41873 673.44017,66.041036 Z M 283.54597,659.88883 C 214.34515,646.88543 129.84493,633.21013 26.602067,619.14359 l 227.574113,57.70115 z m -34.9874,-130.5641 C 195.1306,483.46303 128.78891,429.37103 46.411138,365.56758 L 214.64395,529.3244 Z M 379.11783,303.17747 C 392.12124,233.97663 405.79485,149.47545 419.86137,46.232575 L 362.16023,273.80671 Z m -95.57789,95.58092 C 260.20081,332.32701 229.79342,252.31268 190.35389,155.86842 l 63.81573,225.93301 z m 95.58853,356.70924 c -66.43138,23.33913 -146.44745,53.74562 -242.89166,93.18509 l 225.93573,-63.81627 z m 504.00979,93.18596 -225.93297,-63.81714 -16.95857,-29.36907 c 66.43138,23.33913 146.44733,53.74675 242.89154,93.18621 z M 992.77258,619.1442 765.20012,676.84641 735.82969,659.88938 C 805.03051,646.88597 889.52971,633.21072 992.77258,619.1442 Z M 673.43956,992.59678 509.68184,824.36239 l -6.5e-4,-33.91294 c 45.8617,53.42797 99.95496,119.76965 163.75837,202.14733 z m 299.52572,-627.02813 -168.23343,163.75602 -33.91462,-3.2e-4 c 53.42797,-45.8617 119.77036,-99.9523 202.14805,-163.7557 z M 419.86134,1012.4048 362.1601,784.83066 379.11713,755.46022 c 13.00341,69.20083 26.67768,153.7017 40.74421,256.94458 z m 345.3436,-630.60189 -29.36979,16.95591 c 23.33913,-66.43139 53.74695,-146.44768 93.1862,-242.89152 z m -574.85129,520.96852 63.81641,-225.9356 29.37077,-16.95761 C 260.20169,726.30961 229.7931,806.32724 190.35365,902.77143 Z M 509.69381,268.18929 C 463.83212,214.76132 409.73885,148.41963 345.93545,66.041956 L 509.69316,234.27635 Z M 379.12828,303.17136 C 312.6969,279.83223 232.68101,249.42464 136.23671,209.98512 L 362.17069,273.8006 Z M 248.55864,529.31262 C 195.13066,575.17433 128.78729,629.26661 46.409603,693.07001 L 214.64401,529.31229 Z M 283.5452,398.74928 c -69.20083,13.00341 -153.69897,26.67701 -256.941912,40.7435 L 254.17488,381.79232 Z M 640.25873,303.17676 C 627.25532,233.97593 613.58007,149.47674 599.51355,46.233864 l 57.70136,227.574216 z m 242.87953,-71.83035 -225.93297,63.81714 -16.95857,29.36907 C 706.6781,301.19349 786.69405,270.78587 883.13826,231.34641 Z M 992.77258,460.8558 765.20012,403.15359 735.82969,420.11062 c 69.20082,13.00341 153.70002,26.67866 256.94289,40.74518 z M 673.43956,87.403221 509.68184,255.63761 l -6.5e-4,33.91294 C 555.54289,236.12258 609.63615,169.7809 673.43956,87.403221 Z M 972.96528,714.43135 804.73185,550.67533 l -33.91462,3.2e-4 c 53.42797,45.8617 119.77036,99.9523 202.14805,163.7557 z M 419.86133,67.595196 362.1601,295.16934 l 16.95703,29.37044 c 13.00341,-69.20083 26.67768,-153.7017 40.7442,-256.944584 z M 765.20494,698.19709 735.83515,681.24118 c 23.33913,66.43139 53.74695,146.44768 93.1862,242.89152 z m -574.85131,-520.96855 63.81643,225.93563 29.37077,16.95761 C 260.20169,353.69039 229.7931,273.67276 190.35363,177.22854 Z M 509.69381,811.81071 C 463.83212,865.23868 409.73885,931.58037 345.93545,1013.958 L 509.69316,845.72365 Z M 379.12828,776.82864 C 312.6969,800.16777 232.68101,830.57536 136.23671,870.01488 L 362.17069,806.1994 Z M 248.55864,550.68738 C 195.13066,504.82567 128.78729,450.73339 46.409603,386.92999 L 214.64401,550.68771 Z M 283.5452,681.25072 C 214.34437,668.24731 129.84623,654.57371 26.603288,640.50722 l 227.571592,57.70046 z m 356.71353,95.57252 c -13.00341,69.20083 -26.67866,153.70002 -40.74518,256.94286 l 57.70136,-227.57418 z m 332.7063,-389.8923 -168.23375,163.75512 -33.91365,0.002 c 53.42797,-45.8617 119.76972,-99.95373 202.1474,-163.75714 z m -143.9438,-209.7008 -63.81465,225.93463 -29.37043,16.95703 c 23.33912,-66.43138 53.74561,-146.44745 93.18508,-242.89166 z m 163.75291,463.2768 -227.57412,57.70115 -29.36979,-16.95591 c 69.20083,-13.00341 153.70104,-26.67871 256.94391,-40.74524 z M 599.51471,67.595989 657.21487,295.16842 640.25728,324.53919 C 627.25387,255.33836 613.58123,170.83886 599.51471,67.595989 Z M 883.13928,870.01613 657.20367,806.1998 640.24664,776.82936 c 66.43138,23.33913 146.44842,53.7473 242.89264,93.18677 z m -373.44546,-614.37728 -6.5e-4,33.91294 C 463.83147,236.12381 409.73924,169.78172 345.93605,87.404413 Z m 163.74633,758.32005 -163.75777,-168.2344 -3.3e-4,-33.91464 c 45.8617,53.42798 99.95471,119.77141 163.7581,202.14904 z M 283.54597,420.11117 c -69.20082,13.0034 -153.70104,26.6787 -256.943903,40.74524 L 254.17618,403.15526 Z m -34.9874,130.5641 C 195.1306,596.53697 128.78891,650.62897 46.411138,714.43242 L 214.64395,550.6756 Z m 130.55926,226.14726 c 13.00341,69.20084 26.67702,153.70202 40.74354,256.94487 L 362.16023,806.19329 Z m -95.57789,-95.58092 c -23.33913,66.43138 -53.74652,146.44571 -93.18605,242.88997 L 254.16962,698.19857 Z M 379.12847,324.53237 C 312.69709,301.19324 232.68102,270.78675 136.23681,231.34728 l 225.93573,63.81627 z"
         id="path1016"
         inkscape:original-d="M 1011.2926,471.53108 C 339.10215,379.94717 461.24042,304.85372 427.76657,323.57718"
         inkscape:path-effect="#path-effect1873"
         class="UnoptimicedTransforms"
         sodipodi:nodetypes="cc" />
    </g>
  </g>
</svg>
