<?xml version="1.0" encoding="UTF-8" standalone="no"?>
<!-- Created with Inkscape (http://www.inkscape.org/) -->

<svg
   width="500"
   height="500"
   viewBox="0 0 500 500"
   version="1.1"
   id="SVGRoot"
   xmlns="http://www.w3.org/2000/svg"
   xmlns:svg="http://www.w3.org/2000/svg">
  <defs
     id="defs16" />
  <g
     id="layer1">
    <path
       id="path182"
       style="fill:#800000"
       d="m 97.082031,80.888672 2.376953,69.513668 c 0.584486,-0.87777 1.176166,-1.75685 1.847656,-2.64648 27.38886,-36.28663 -4.224609,-66.867188 -4.224609,-66.867188 z m 2.376953,69.513668 c -11.541135,17.33223 -6.488862,32.35233 1.550786,45.3711 z m 1.550786,45.3711 2.36914,69.29883 c 2.74068,-6.31154 6.8585,-12.15202 10.39843,-17.90625 2.12703,7.5268 5.69624,15.44144 7.11914,23.51171 l 18.45118,-66.83789 c -7.11137,7.06873 -15.19273,13.01421 -20.66407,18.78711 -3.42668,-7.828 -11.42739,-16.73853 -17.67382,-26.85351 z m 38.33789,8.0664 c 10.85185,-10.78679 19.2661,-24.21575 12.08203,-43.75976 z m 12.08203,-43.75976 17.64062,-63.898439 1.76563,51.652339 c 1.56898,-6.58861 3.50507,-12.09 5.73828,-15.63671 10.17449,-16.15883 -7.95508,-49.218754 -7.95508,-49.218754 l 0.36524,10.68164 c -4.77119,3.092106 -35.54822,24.873794 -18.73438,63.414064 0.44582,1.02189 0.81575,2.01579 1.17969,3.00586 z m 19.40625,-12.2461 c -3.94679,16.57372 -5.39816,40.36212 -2.48047,59.9961 l -4.11914,14.91797 c 1.87124,-2.48527 3.65388,-5.25275 5.30078,-8.35938 1.02013,4.78035 2.35215,9.16366 4.01953,12.99805 l -0.68555,-20.06445 c 8.03103,-18.72312 12.52403,-43.52367 12.54883,-61.30274 l -13.03125,47.20117 z m 14.58398,-1.81445 17.26953,-62.554686 c 0,0 -25.33603,27.926836 -19.20703,46.011716 1.34519,3.96926 1.94695,9.77059 1.9375,16.54297 z m -11.86328,81.36719 0.93359,27.2832 c 3.30229,-7.60485 4.48622,-15.87571 -0.16796,-25.44531 -0.27869,-0.57302 -0.50383,-1.23585 -0.76563,-1.83789 z m 0.93359,27.2832 c -2.74068,6.31154 -6.8585,12.15202 -10.39843,17.90625 -2.12703,-7.52681 -5.69623,-15.44144 -7.11914,-23.51172 l -18.45313,66.83594 c 7.11176,-7.06916 15.19463,-13.01389 20.66602,-18.78711 3.42638,7.82823 11.4271,16.73812 17.67383,26.85352 z m 2.36915,69.29688 1.55078,45.37304 c 11.54119,-17.33231 6.48893,-32.35423 -1.55078,-45.37304 z m 1.55078,45.37304 c -0.58449,0.87778 -1.17617,1.75686 -1.84766,2.64649 -27.38886,36.28663 4.22461,66.86719 4.22461,66.86719 z m -39.89063,-53.43945 c -10.85184,10.78683 -19.26434,24.21762 -12.08008,43.76172 z m -12.08008,43.76172 -17.64062,63.89844 -1.76563,-51.64649 c -1.56866,6.58508 -3.50596,12.08556 -5.73828,15.63086 -10.174487,16.15883 7.95508,49.21875 7.95508,49.21875 l -0.36523,-10.67969 c 4.76418,-3.08703 35.55066,-24.87208 18.73437,-63.41796 -0.44576,-1.02177 -0.81579,-2.01396 -1.17969,-3.00391 z m -19.40625,12.25195 c 3.94858,-16.57564 5.39976,-40.36964 2.48047,-60.00781 l 4.11719,-14.91406 c -1.87121,2.48523 -3.65196,5.25474 -5.29883,8.36133 -1.02032,-4.7814 -2.35169,-9.165 -4.01953,-13 l 0.68555,20.0664 c -8.030735,18.72243 -12.523702,43.52184 -12.548831,61.30078 l 13.031251,-47.20508 z m -14.583981,1.80664 -17.269531,62.55469 c 0,0 25.336032,-27.92488 19.207031,-46.00977 -1.345318,-3.96964 -1.947074,-9.77169 -1.9375,-16.54492 z m 11.863281,-81.36718 -0.93359,-27.28125 c -3.30229,7.60485 -4.486213,15.8757 0.16797,25.44531 0.27839,0.57242 0.50408,1.23455 0.76562,1.83594 z m 9.31836,4.63867 c 0.39483,-0.5244 0.76933,-1.11518 1.17383,-1.60742 6.75652,-8.22227 7.53152,-16.54141 6.09179,-24.70704 z m 43.3418,-47.92774 7.26367,-26.3164 c -0.39481,0.52435 -0.76741,1.11716 -1.17188,1.60937 -6.75652,8.22227 -7.53151,16.54141 -6.09179,24.70703 z" />
    <path
       id="path303"
       style="fill:#800000"
       d="m 207.16497,85.769488 2.37695,69.513672 c 0.58449,-0.87777 1.17617,-1.75685 1.84766,-2.64648 27.38886,-36.28663 -4.22461,-66.867192 -4.22461,-66.867192 z m 2.37695,69.513672 c -11.54113,17.33223 -6.48886,32.35233 1.55079,45.3711 z m 1.55079,45.3711 2.36914,69.29883 c 2.74068,-6.31154 6.8585,-12.15202 10.39843,-17.90625 2.12703,7.5268 5.69624,15.44144 7.11914,23.51171 l 18.45118,-66.83789 c -7.11137,7.06873 -15.19273,13.01421 -20.66407,18.78711 -3.42668,-7.828 -11.42739,-16.73853 -17.67382,-26.85351 z m 38.33789,8.0664 c 10.85185,-10.78679 19.2661,-24.21575 12.08203,-43.75976 z m 12.08203,-43.75976 17.64062,-63.89844 1.76563,51.65234 c 1.56898,-6.58861 3.50507,-12.09 5.73828,-15.63671 10.17449,-16.15883 -7.95508,-49.218758 -7.95508,-49.218758 l 0.36524,10.68164 c -4.77119,3.092108 -35.54822,24.873798 -18.73438,63.414068 0.44582,1.02189 0.81575,2.01579 1.17969,3.00586 z m 19.40625,-12.2461 c -3.94679,16.57372 -5.39816,40.36212 -2.48047,59.9961 l -4.11914,14.91797 c 1.87124,-2.48527 3.65388,-5.25275 5.30078,-8.35938 1.02013,4.78035 2.35215,9.16366 4.01953,12.99805 l -0.68555,-20.06445 c 8.03103,-18.72312 12.52403,-43.52367 12.54883,-61.30274 l -13.03125,47.20117 z m 14.58398,-1.81445 17.26953,-62.55469 c 0,0 -25.33603,27.92684 -19.20703,46.01172 1.34519,3.96926 1.94695,9.77059 1.9375,16.54297 z m -11.86328,81.36719 0.93359,27.2832 c 3.30229,-7.60485 4.48622,-15.87571 -0.16796,-25.44531 -0.27869,-0.57302 -0.50383,-1.23585 -0.76563,-1.83789 z m 0.93359,27.2832 c -2.74068,6.31154 -6.8585,12.15202 -10.39843,17.90625 -2.12703,-7.52681 -5.69623,-15.44144 -7.11914,-23.51172 l -18.45313,66.83594 c 7.11176,-7.06916 15.19463,-13.01389 20.66602,-18.78711 3.42638,7.82823 11.4271,16.73812 17.67383,26.85352 z m 2.36915,69.29688 1.55078,45.37304 c 11.54119,-17.33231 6.48893,-32.35423 -1.55078,-45.37304 z m 1.55078,45.37304 c -0.58449,0.87778 -1.17617,1.75686 -1.84766,2.64649 -27.38886,36.28663 4.22461,66.86719 4.22461,66.86719 z m -39.89063,-53.43945 c -10.85184,10.78683 -19.26434,24.21762 -12.08008,43.76172 z m -12.08008,43.76172 -17.64062,63.89844 -1.76563,-51.64649 c -1.56866,6.58508 -3.50596,12.08556 -5.73828,15.63086 -10.17449,16.15883 7.95508,49.21875 7.95508,49.21875 l -0.36523,-10.67969 c 4.76418,-3.08703 35.55066,-24.87208 18.73437,-63.41796 -0.44576,-1.02177 -0.81579,-2.01396 -1.17969,-3.00391 z m -19.40625,12.25195 c 3.94858,-16.57564 5.39976,-40.36964 2.48047,-60.00781 l 4.11719,-14.91406 c -1.87121,2.48523 -3.65196,5.25474 -5.29883,8.36133 -1.02032,-4.7814 -2.35169,-9.165 -4.01953,-13 l 0.68555,20.0664 c -8.03074,18.72243 -12.52371,43.52184 -12.54883,61.30078 l 13.03125,-47.20508 z m -14.58398,1.80664 -17.26954,62.55469 c 0,0 25.33604,-27.92488 19.20704,-46.00977 -1.34532,-3.96964 -1.94708,-9.77169 -1.9375,-16.54492 z m 11.86328,-81.36718 -0.93359,-27.28125 c -3.30229,7.60485 -4.48622,15.8757 0.16797,25.44531 0.27839,0.57242 0.50408,1.23455 0.76562,1.83594 z m 9.31836,4.63867 c 0.39483,-0.5244 0.76933,-1.11518 1.17383,-1.60742 6.75652,-8.22227 7.53152,-16.54141 6.09179,-24.70704 z m 43.3418,-47.92774 7.26367,-26.3164 c -0.39481,0.52435 -0.76741,1.11716 -1.17188,1.60937 -6.75652,8.22227 -7.53151,16.54141 -6.09179,24.70703 z" />
    <path
       id="path305"
       style="fill:#800000"
       d="m 310.05543,83.385706 2.37695,69.513674 c 0.58449,-0.87777 1.17617,-1.75685 1.84766,-2.64648 27.38886,-36.28663 -4.22461,-66.867194 -4.22461,-66.867194 z m 2.37695,69.513674 c -11.54113,17.33223 -6.48886,32.35233 1.55079,45.3711 z m 1.55079,45.3711 2.36914,69.29883 c 2.74068,-6.31154 6.8585,-12.15202 10.39843,-17.90625 2.12703,7.5268 5.69624,15.44144 7.11914,23.51171 l 18.45118,-66.83789 c -7.11137,7.06873 -15.19273,13.01421 -20.66407,18.78711 -3.42668,-7.828 -11.42739,-16.73853 -17.67382,-26.85351 z m 38.33789,8.0664 c 10.85185,-10.78679 19.2661,-24.21575 12.08203,-43.75976 z m 12.08203,-43.75976 17.64062,-63.898439 1.76563,51.652339 c 1.56898,-6.58861 3.50507,-12.09 5.73828,-15.63671 10.17449,-16.15883 -7.95508,-49.21876 -7.95508,-49.21876 l 0.36524,10.681641 c -4.77119,3.09211 -35.54822,24.873799 -18.73438,63.414069 0.44582,1.02189 0.81575,2.01579 1.17969,3.00586 z m 19.40625,-12.2461 c -3.94679,16.57372 -5.39816,40.36212 -2.48047,59.9961 l -4.11914,14.91797 c 1.87124,-2.48527 3.65388,-5.25275 5.30078,-8.35938 1.02013,4.78035 2.35215,9.16366 4.01953,12.99805 l -0.68555,-20.06445 c 8.03103,-18.72312 12.52403,-43.52367 12.54883,-61.30274 l -13.03125,47.20117 z m 14.58398,-1.81445 17.26953,-62.554692 c 0,0 -25.33603,27.926842 -19.20703,46.011722 1.34519,3.96926 1.94695,9.77059 1.9375,16.54297 z m -11.86328,81.36719 0.93359,27.2832 c 3.30229,-7.60485 4.48622,-15.87571 -0.16796,-25.44531 -0.27869,-0.57302 -0.50383,-1.23585 -0.76563,-1.83789 z m 0.93359,27.2832 c -2.74068,6.31154 -6.8585,12.15202 -10.39843,17.90625 -2.12703,-7.52681 -5.69623,-15.44144 -7.11914,-23.51172 l -18.45313,66.83594 c 7.11176,-7.06916 15.19463,-13.01389 20.66602,-18.78711 3.42638,7.82823 11.4271,16.73812 17.67383,26.85352 z m 2.36915,69.29688 1.55078,45.37304 c 11.54119,-17.33231 6.48893,-32.35423 -1.55078,-45.37304 z m 1.55078,45.37304 c -0.58449,0.87778 -1.17617,1.75686 -1.84766,2.64649 -27.38886,36.28663 4.22461,66.86719 4.22461,66.86719 z m -39.89063,-53.43945 c -10.85184,10.78683 -19.26434,24.21762 -12.08008,43.76172 z m -12.08008,43.76172 -17.64062,63.89844 -1.76563,-51.64649 c -1.56866,6.58508 -3.50596,12.08556 -5.73828,15.63086 -10.17449,16.15883 7.95508,49.21875 7.95508,49.21875 l -0.36523,-10.67969 c 4.76418,-3.08703 35.55066,-24.87208 18.73437,-63.41796 -0.44576,-1.02177 -0.81579,-2.01396 -1.17969,-3.00391 z M 320.0066,374.4111 c 3.94858,-16.57564 5.39976,-40.36964 2.48047,-60.00781 l 4.11719,-14.91406 c -1.87121,2.48523 -3.65196,5.25474 -5.29883,8.36133 -1.02032,-4.7814 -2.35169,-9.165 -4.01953,-13 l 0.68555,20.0664 c -8.03074,18.72243 -12.52371,43.52184 -12.54883,61.30078 l 13.03125,-47.20508 z m -14.58398,1.80664 -17.26954,62.55469 c 0,0 25.33604,-27.92488 19.20704,-46.00977 -1.34532,-3.96964 -1.94708,-9.77169 -1.9375,-16.54492 z m 11.86328,-81.36718 -0.93359,-27.28125 c -3.30229,7.60485 -4.48622,15.8757 0.16797,25.44531 0.27839,0.57242 0.50408,1.23455 0.76562,1.83594 z m 9.31836,4.63867 c 0.39483,-0.5244 0.76933,-1.11518 1.17383,-1.60742 6.75652,-8.22227 7.53152,-16.54141 6.09179,-24.70704 z m 43.3418,-47.92774 7.26367,-26.3164 c -0.39481,0.52435 -0.76741,1.11716 -1.17188,1.60937 -6.75652,8.22227 -7.53151,16.54141 -6.09179,24.70703 z" />
    <path
       id="path307"
       style="fill:#800000"
       d="m 21.686235,85.342291 2.37695,69.513679 c 0.58449,-0.87777 1.17617,-1.75685 1.84766,-2.64648 27.38886,-36.28663 -4.22461,-66.867199 -4.22461,-66.867199 z m 2.37695,69.513679 c -11.54113,17.33223 -6.48886,32.35233 1.55079,45.3711 z m 1.55079,45.3711 2.36914,69.29883 c 2.74068,-6.31154 6.8585,-12.15202 10.39843,-17.90625 2.12703,7.5268 5.69624,15.44144 7.11914,23.51171 l 18.45118,-66.83789 c -7.11137,7.06873 -15.19273,13.01421 -20.66407,18.78711 -3.42668,-7.828 -11.42739,-16.73853 -17.67382,-26.85351 z m 38.33789,8.0664 c 10.85185,-10.78679 19.2661,-24.21575 12.08203,-43.75976 z m 12.08203,-43.75976 17.64062,-63.89844 1.76563,51.65234 c 1.56898,-6.58861 3.50507,-12.09 5.738285,-15.63671 10.17449,-16.15883 -7.955085,-49.218765 -7.955085,-49.218765 l 0.36524,10.681641 c -4.77119,3.092114 -35.54822,24.873804 -18.73438,63.414074 0.44582,1.02189 0.81575,2.01579 1.17969,3.00586 z m 19.40625,-12.2461 c -3.94679,16.57372 -5.39816,40.36212 -2.48047,59.9961 l -4.11914,14.91797 c 1.87124,-2.48527 3.65388,-5.25275 5.30078,-8.35938 1.02013,4.78035 2.35215,9.16366 4.01953,12.99805 l -0.68555,-20.06445 c 8.031035,-18.72312 12.524035,-43.52367 12.548835,-61.30274 l -13.031255,47.20117 z m 14.583985,-1.81445 17.26953,-62.554697 c 0,0 -25.33603,27.926847 -19.20703,46.011727 1.34519,3.96926 1.94695,9.77059 1.9375,16.54297 z m -11.863285,81.36719 0.93359,27.2832 c 3.302295,-7.60485 4.486225,-15.87571 -0.16796,-25.44531 -0.27869,-0.57302 -0.50383,-1.23585 -0.76563,-1.83789 z m 0.93359,27.2832 c -2.74068,6.31154 -6.8585,12.15202 -10.39843,17.90625 -2.12703,-7.52681 -5.69623,-15.44144 -7.11914,-23.51172 l -18.45313,66.83594 c 7.11176,-7.06916 15.19463,-13.01389 20.66602,-18.78711 3.42638,7.82823 11.4271,16.73812 17.673835,26.85352 z m 2.369155,69.29688 1.55078,45.37304 c 11.54119,-17.33231 6.48893,-32.35423 -1.55078,-45.37304 z m 1.55078,45.37304 c -0.58449,0.87778 -1.17617,1.75686 -1.84766,2.64649 -27.388865,36.28663 4.22461,66.86719 4.22461,66.86719 z M 63.123735,320.35402 c -10.85184,10.78683 -19.26434,24.21762 -12.08008,43.76172 z m -12.08008,43.76172 -17.64062,63.89844 -1.76563,-51.64649 c -1.56866,6.58508 -3.50596,12.08556 -5.73828,15.63086 -10.17449,16.15883 7.95508,49.21875 7.95508,49.21875 l -0.36523,-10.67969 c 4.76418,-3.08703 35.55066,-24.87208 18.73437,-63.41796 -0.44576,-1.02177 -0.81579,-2.01396 -1.17969,-3.00391 z m -19.40625,12.25195 c 3.94858,-16.57564 5.39976,-40.36964 2.48047,-60.00781 l 4.11719,-14.91406 c -1.87121,2.48523 -3.65196,5.25474 -5.29883,8.36133 -1.02032,-4.7814 -2.35169,-9.165 -4.01953,-13 l 0.68555,20.0664 c -8.03074,18.72243 -12.52371,43.52184 -12.54883,61.30078 l 13.03125,-47.20508 z m -14.58398,1.80664 -17.26953987,62.55469 c 0,0 25.33603987,-27.92488 19.20703987,-46.00977 -1.34532,-3.96964 -1.94708,-9.77169 -1.9375,-16.54492 z m 11.86328,-81.36718 -0.93359,-27.28125 c -3.30229,7.60485 -4.48622,15.8757 0.16797,25.44531 0.27839,0.57242 0.50408,1.23455 0.76562,1.83594 z m 9.31836,4.63867 c 0.39483,-0.5244 0.76933,-1.11518 1.17383,-1.60742 6.75652,-8.22227 7.53152,-16.54141 6.09179,-24.70704 z m 43.3418,-47.92774 7.26367,-26.3164 c -0.39481,0.52435 -0.76741,1.11716 -1.17188,1.60937 -6.75652,8.22227 -7.53151,16.54141 -6.09179,24.70703 z" />
    <path
       id="path309"
       style="fill:#800000"
       d="m 416.25067,84.493992 2.37695,69.513668 c 0.58449,-0.87777 1.17617,-1.75685 1.84766,-2.64648 27.38886,-36.28663 -4.22461,-66.867188 -4.22461,-66.867188 z m 2.37695,69.513668 c -11.54113,17.33223 -6.48886,32.35233 1.55079,45.3711 z m 1.55079,45.3711 2.36914,69.29883 c 2.74068,-6.31154 6.8585,-12.15202 10.39843,-17.90625 2.12703,7.5268 5.69624,15.44144 7.11914,23.51171 l 18.45118,-66.83789 c -7.11137,7.06873 -15.19273,13.01421 -20.66407,18.78711 -3.42668,-7.828 -11.42739,-16.73853 -17.67382,-26.85351 z m 38.33789,8.0664 c 10.85185,-10.78679 19.2661,-24.21575 12.08203,-43.75976 z m 12.08203,-43.75976 17.64062,-63.898442 1.76563,51.652342 c 1.56898,-6.58861 3.50507,-12.09 5.73828,-15.63671 10.17449,-16.15883 -7.95508,-49.218757 -7.95508,-49.218757 l 0.36524,10.681638 c -4.77119,3.092109 -35.54822,24.873799 -18.73438,63.414069 0.44582,1.02189 0.81575,2.01579 1.17969,3.00586 z m 19.40625,-12.2461 c -3.94679,16.57372 -5.39816,40.36212 -2.48047,59.9961 l -4.11914,14.91797 c 1.87124,-2.48527 3.65388,-5.25275 5.30078,-8.35938 1.02013,4.78035 2.35215,9.16366 4.01953,12.99805 l -0.68555,-20.06445 c 8.03103,-18.72312 12.52403,-43.52367 12.54883,-61.30274 l -13.03125,47.20117 z m 14.58398,-1.81445 17.26953,-62.554687 c 0,0 -25.33603,27.926837 -19.20703,46.011717 1.34519,3.96926 1.94695,9.77059 1.9375,16.54297 z m -11.86328,81.36719 0.93359,27.2832 c 3.30229,-7.60485 4.48622,-15.87571 -0.16796,-25.44531 -0.27869,-0.57302 -0.50383,-1.23585 -0.76563,-1.83789 z m 0.93359,27.2832 c -2.74068,6.31154 -6.8585,12.15202 -10.39843,17.90625 -2.12703,-7.52681 -5.69623,-15.44144 -7.11914,-23.51172 l -18.45313,66.83594 c 7.11176,-7.06916 15.19463,-13.01389 20.66602,-18.78711 3.42638,7.82823 11.4271,16.73812 17.67383,26.85352 z m 2.36915,69.29688 1.55078,45.37304 c 11.54119,-17.33231 6.48893,-32.35423 -1.55078,-45.37304 z m 1.55078,45.37304 c -0.58449,0.87778 -1.17617,1.75686 -1.84766,2.64649 -27.38886,36.28663 4.22461,66.86719 4.22461,66.86719 z m -39.89063,-53.43945 c -10.85184,10.78683 -19.26434,24.21762 -12.08008,43.76172 z m -12.08008,43.76172 -17.64062,63.89844 -1.76563,-51.64649 c -1.56866,6.58508 -3.50596,12.08556 -5.73828,15.63086 -10.17449,16.15883 7.95508,49.21875 7.95508,49.21875 l -0.36523,-10.67969 c 4.76418,-3.08703 35.55066,-24.87208 18.73437,-63.41796 -0.44576,-1.02177 -0.81579,-2.01396 -1.17969,-3.00391 z m -19.40625,12.25195 c 3.94858,-16.57564 5.39976,-40.36964 2.48047,-60.00781 l 4.11719,-14.91406 c -1.87121,2.48523 -3.65196,5.25474 -5.29883,8.36133 -1.02032,-4.7814 -2.35169,-9.165 -4.01953,-13 l 0.68555,20.0664 c -8.03074,18.72243 -12.52371,43.52184 -12.54883,61.30078 l 13.03125,-47.20508 z m -14.58398,1.80664 -17.26954,62.55469 c 0,0 25.33604,-27.92488 19.20704,-46.00977 -1.34532,-3.96964 -1.94708,-9.77169 -1.9375,-16.54492 z m 11.86328,-81.36718 -0.93359,-27.28125 c -3.30229,7.60485 -4.48622,15.8757 0.16797,25.44531 0.27839,0.57242 0.50408,1.23455 0.76562,1.83594 z m 9.31836,4.63867 c 0.39483,-0.5244 0.76933,-1.11518 1.17383,-1.60742 6.75652,-8.22227 7.53152,-16.54141 6.09179,-24.70704 z m 43.3418,-47.92774 7.26367,-26.3164 c -0.39481,0.52435 -0.76741,1.11716 -1.17188,1.60937 -6.75652,8.22227 -7.53151,16.54141 -6.09179,24.70703 z" />
    <path
       id="path311"
       style="fill:#800000"
       d="m -82.665372,82.049 2.37695,69.51367 c 0.58449,-0.87777 1.17617,-1.75685 1.84766,-2.64648 27.38886,-36.28663 -4.22461,-66.86719 -4.22461,-66.86719 z m 2.37695,69.51367 c -11.54113,17.33223 -6.48886,32.35233 1.55079,45.3711 z m 1.55079,45.3711 2.36914,69.29883 c 2.74068,-6.31154 6.8585,-12.15202 10.39843,-17.90625 2.12703,7.5268 5.69624,15.44144 7.11914,23.51171 l 18.45118,-66.83789 c -7.11137,7.06873 -15.19273,13.01421 -20.66407,18.78711 -3.42668,-7.828 -11.42739,-16.73853 -17.67382,-26.85351 z m 38.33789,8.0664 c 10.85185,-10.78679 19.2661,-24.21575 12.08203,-43.75976 z m 12.08203,-43.75976 17.64062,-63.898443 1.7656299,51.652343 c 1.56898,-6.58861 3.50507,-12.09 5.73828,-15.63671 10.17449,-16.15883 -7.9550799,-49.218759 -7.9550799,-49.218759 l 0.36524,10.681638 c -4.77119,3.092108 -35.54822,24.873801 -18.73438,63.414071 0.44582,1.02189 0.81575,2.01579 1.17969,3.00586 z m 19.4062499,-12.2461 c -3.9467899,16.57372 -5.3981599,40.36212 -2.4804699,59.9961 l -4.11914,14.91797 c 1.87124,-2.48527 3.65388,-5.25275 5.30078,-8.35938 1.0201299,4.78035 2.3521499,9.16366 4.0195299,12.99805 l -0.68555,-20.06445 c 8.03103,-18.72312 12.52403,-43.52367 12.54883,-61.30274 l -13.03125,47.20117 z m 14.58398,-1.81445 17.2695301,-62.554689 c 0,0 -25.3360301,27.926839 -19.2070301,46.011719 1.34519,3.96926 1.94695,9.77059 1.9375,16.54297 z m -11.86328,81.36719 0.93359,27.2832 c 3.30229,-7.60485 4.48622002,-15.87571 -0.16796,-25.44531 -0.27869,-0.57302 -0.50383,-1.23585 -0.76563,-1.83789 z m 0.93359,27.2832 c -2.74068,6.31154 -6.8584999,12.15202 -10.3984299,17.90625 -2.12703,-7.52681 -5.69623,-15.44144 -7.11914,-23.51172 l -18.45313,66.83594 c 7.11176,-7.06916 15.19463,-13.01389 20.66602,-18.78711 3.42638,7.82823 11.4270999,16.73812 17.6738299,26.85352 z m 2.36915,69.29688 1.55078,45.37304 c 11.5411901,-17.33231 6.48893,-32.35423 -1.55078,-45.37304 z m 1.55078,45.37304 c -0.58449,0.87778 -1.17617,1.75686 -1.84766,2.64649 -27.3888599,36.28663 4.22461,66.86719 4.22461,66.86719 z M -41.227872,317.06072 c -10.85184,10.78683 -19.26434,24.21762 -12.08008,43.76172 z m -12.08008,43.76172 -17.64062,63.89844 -1.76563,-51.64649 c -1.56866,6.58508 -3.50596,12.08556 -5.73828,15.63086 -10.17449,16.15883 7.95508,49.21875 7.95508,49.21875 l -0.36523,-10.67969 c 4.76418,-3.08703 35.55066,-24.87208 18.73437,-63.41796 -0.44576,-1.02177 -0.81579,-2.01396 -1.17969,-3.00391 z m -19.40625,12.25195 c 3.94858,-16.57564 5.39976,-40.36964 2.48047,-60.00781 l 4.11719,-14.91406 c -1.87121,2.48523 -3.65196,5.25474 -5.29883,8.36133 -1.02032,-4.7814 -2.35169,-9.165 -4.01953,-13 l 0.68555,20.0664 c -8.03074,18.72243 -12.52371,43.52184 -12.54883,61.30078 l 13.03125,-47.20508 z m -14.58398,1.80664 -17.269538,62.55469 c 0,0 25.336038,-27.92488 19.207038,-46.00977 -1.34532,-3.96964 -1.94708,-9.77169 -1.9375,-16.54492 z m 11.86328,-81.36718 -0.93359,-27.28125 c -3.30229,7.60485 -4.48622,15.8757 0.16797,25.44531 0.27839,0.57242 0.50408,1.23455 0.76562,1.83594 z m 9.31836,4.63867 c 0.39483,-0.5244 0.76933,-1.11518 1.17383,-1.60742 6.75652,-8.22227 7.53152,-16.54141 6.09179,-24.70704 z m 43.3418,-47.92774 7.26367,-26.3164 c -0.39481,0.52435 -0.76741,1.11716 -1.17188,1.60937 -6.75652,8.22227 -7.53151,16.54141 -6.09179,24.70703 z" />
  </g>
</svg>
